<svg xmlns="http://www.w3.org/2000/svg" viewBox="0 0 8.53 8.28">
  <path d="M.57.65h.79v7.63H.57zm6.6 0h.77v7.63h-.77z"/>
  <path d="M8.53.4a.39.39 0 0 1-.4.4H.37A.38.38 0 0 1 0 .4.38.38 0 0 1 .37 0h7.77a.39.39 0 0 1 .4.4z"/>
  <path d="M2.72.65h.4v2.58h-.4zm2.67 0h.43v2.58h-.43z"/>
  <path d="M2.92 2.75a1 1 0 0 1 .74.31A1 1 0 0 1 4 3.8a1 1 0 0 1-.31.74 1.1 1.1 0 0 1-1.47 0 1.16 1.16 0 0 1-.31-.74 1.1 1.1 0 0 1 .31-.74 1 1 0 0 1 .74-.31zm.34.71a.48.48 0 0 0-.82.34.46.46 0 0 0 .14.31.48.48 0 0 0 .68 0 .46.46 0 0 0 .14-.31.47.47 0 0 0-.14-.34zm2.35-.71a1 1 0 0 1 .74.31 1.08 1.08 0 0 1 .28.74 1.13 1.13 0 0 1-.28.74 1.13 1.13 0 0 1-.74.28 1.08 1.08 0 0 1-.74-.28 1 1 0 0 1-.31-.74 1 1 0 0 1 .31-.74 1 1 0 0 1 .74-.31zm.31.71a.46.46 0 0 0-.31-.14.48.48 0 0 0-.48.48.46.46 0 0 0 .14.31.47.47 0 0 0 .34.14.49.49 0 0 0 .45-.45.47.47 0 0 0-.14-.34z"/>
</svg>