<svg xmlns="http://www.w3.org/2000/svg" viewBox="0 0 9.08 11.94">
  <path d="M9.08 7.77a1 1 0 0 0-.31-.65L7.12 5.64c-.26-.43 0-.37.14-1.25A3.86 3.86 0 0 0 5.79.85C4.43-.14 2.13-.42.86.85A3.24 3.24 0 0 0 0 3.6a4.56 4.56 0 0 0 1.25 2.7 3.63 3.63 0 0 0 2.24 1 3.79 3.79 0 0 0 .57 0l.51-.09h.06A1 1 0 0 0 5 7.09a.57.57 0 0 1 .57 0l1.5 1.67a1 1 0 0 0 .62.31 1 1 0 0 0 .62-.26l.43-.43A.88.88 0 0 0 9 7.76zm-1.3.74a.57.57 0 0 1-.23-.11L6 6.69a.86.86 0 0 0-.65-.28.87.87 0 0 0-.35.08 3.9 3.9 0 0 1-1.11.26l2.86-2.83A3 3 0 0 1 6.47 5a.92.92 0 0 0 .23 1l1.7 1.57a.22.22 0 0 1 .09.2.24.24 0 0 1-.09.23l-.4.4a.26.26 0 0 1-.23.11zM4.54 9a1.35 1.35 0 0 0-1 .43 1.44 1.44 0 0 0 0 2 1.35 1.35 0 0 0 1 .43 1.44 1.44 0 0 0 1-.43 1.44 1.44 0 0 0 0-2 1.44 1.44 0 0 0-1-.43z"/>
</svg>