<svg xmlns="http://www.w3.org/2000/svg" viewBox="0 0 10.66 5.78">
      <path d="M.54.65a.56.56 0 0 1 .57.54v3.4a.57.57 0 0 1-.57.57.56.56 0 0 1-.54-.57v-3.4A.56.56 0 0 1 .54.65zM2 0a.57.57 0 0 1 .57.57v4.65a.57.57 0 0 1-.57.56.57.57 0 0 1-.57-.57V.57A.57.57 0 0 1 2 0zM10.09.65a.56.56 0 0 0-.57.54v3.4a.57.57 0 0 0 .57.57.57.57 0 0 0 .57-.57v-3.4a.56.56 0 0 0-.57-.54zM8.59 0A.57.57 0 0 0 8 .57v4.65a.57.57 0 0 0 .57.57.57.57 0 0 0 .57-.57V.57A.57.57 0 0 0 8.59 0zM7.54 2.52v.74a.41.41 0 0 1-.43.4h-3.6a.39.39 0 0 1-.4-.4v-.74a.39.39 0 0 1 .4-.4h3.6a.41.41 0 0 1 .43.4z" class="cls-1"/>
</svg>