<svg xmlns="http://www.w3.org/2000/svg" viewBox="0 0 11.34 7.6">
    <path d="M8.82 2.32h-.09l-.34-2a.33.33 0 0 0-.17-.26A.52.52 0 0 0 8 0a.17.17 0 0 0-.11 0l-1 .31a.38.38 0 0 0-.29.51.41.41 0 0 0 .48.26l.62-.2.14.82H4.59v-.14L5 1.45a.32.32 0 0 0 .26-.37.31.31 0 0 0-.38-.31L3.4.85h-.08a.49.49 0 0 0-.37.6.5.5 0 0 0 .6.37l.28-.09V2l-.31.54a2.81 2.81 0 0 0-1-.2A2.59 2.59 0 0 0 0 5a2.59 2.59 0 0 0 2.52 2.6A2.59 2.59 0 0 0 5 5.36h.4a.35.35 0 0 0 .28-.14l.57-.62v.37A2.6 2.6 0 0 0 8.82 7.6 2.59 2.59 0 0 0 11.34 5a2.59 2.59 0 0 0-2.52-2.68zm-6.3 4.51A1.81 1.81 0 0 1 .77 5a1.83 1.83 0 0 1 1.75-1.91 2 2 0 0 1 .6.11l-.91 1.56a.34.34 0 0 0 0 .4.38.38 0 0 0 .31.2h1.73a1.78 1.78 0 0 1-1.73 1.47zm1.73-2.24h-1l.57-1a2 2 0 0 1 .48 1zm1 0H5a2.83 2.83 0 0 0-.88-1.64l.26-.48h2.79zm3.57 2.24A1.82 1.82 0 0 1 7 5a1.87 1.87 0 0 1 1.08-1.7L8.42 5a.4.4 0 0 0 .4.31h.06a.43.43 0 0 0 .31-.45l-.32-1.74A1.81 1.81 0 0 1 10.57 5a1.81 1.81 0 0 1-1.75 1.83z"/>
</svg>