<svg xmlns="http://www.w3.org/2000/svg" viewBox="0 0 9.07 9.07">
    <path d="M4.54 0a4.53 4.53 0 0 1 3.2 7.74 4.42 4.42 0 0 1-3.2 1.33A4.55 4.55 0 0 1 1.33 1.3 4.62 4.62 0 0 1 4.54 0zm1.87.91a5.23 5.23 0 0 0-2 3.57v.08l-.09.06a2.21 2.21 0 0 1-.62.11 2.58 2.58 0 0 1-.77-.14l-.11-.06v-.11A5.1 5.1 0 0 1 5 .48h-.45a3.52 3.52 0 0 0-.77.08A5.59 5.59 0 0 0 2 3.88v.29L1.76 4a8.52 8.52 0 0 1-1-.85A3.09 3.09 0 0 0 .51 4a5.21 5.21 0 0 0 3.15 1.5 2.26 2.26 0 0 0 1-.23h.06l.09.06a6.85 6.85 0 0 1 1 .77l.19.11-.17.11a3.29 3.29 0 0 1-1.9.54h-.07A6.68 6.68 0 0 1 .74 6a3.9 3.9 0 0 0 .71 1.19l.11.06a6.35 6.35 0 0 0 2.3.45 4.26 4.26 0 0 0 2.49-.74l.17-.09.08.13a6.91 6.91 0 0 1 .4.79 4.92 4.92 0 0 0 .43-.37l.17-.2a5.71 5.71 0 0 0-2.36-2.6l-.08-.06v-.11a3.75 3.75 0 0 1 .43-1.3L5.64 3l.17.06A5.25 5.25 0 0 1 8.42 5.7a4 4 0 0 0 .2-1.16v-.09l-.06-.08a5.87 5.87 0 0 0-2.24-1.93l-.23-.11.17-.17a7.37 7.37 0 0 1 .82-.79 4.06 4.06 0 0 0-.67-.46z"/>
</svg>