<svg xmlns="http://www.w3.org/2000/svg" xmlns:xlink="http://www.w3.org/1999/xlink" viewBox="0 0 277.5 211.78">
  <defs>
    <clipPath id="c">
      <path fill="none" d="M121.57 16.7l30.87 3.12 21.35-6.55-29.5-1.43-22.7 4.86z" clip-rule="evenodd"/>
    </clipPath>
    <linearGradient id="b" x1="121.57" x2="173.79" y1="15.82" y2="15.82" gradientUnits="userSpaceOnUse">
      <stop offset="0" stop-color="#26ab66"/>
      <stop offset=".99" stop-color="#00a19a"/>
      <stop offset="1" stop-color="#00a19a"/>
    </linearGradient>
    <clipPath id="d">
      <path fill="none" d="M71.95 11.73l-10.9-1.16v-.22L114.85 0l22.36 1.07-14.5 3.57-7.37 1.8v.01l-28.1 6.9-15.27-1.6z" clip-rule="evenodd"/>
    </clipPath>
    <linearGradient id="a" x1="60.9" x2="215.58" y1="5.52" y2="10.19" gradientUnits="userSpaceOnUse">
      <stop offset="0" stop-color="#1d70b8"/>
      <stop offset=".99" stop-color="#26348b"/>
      <stop offset="1" stop-color="#26348b"/>
    </linearGradient>
    <clipPath id="e">
      <path fill="none" d="M143.63 55.6l8.8 1.7v-8.7l-8.8-1.4zm-6.4-1.23l5.06 1V47l-5.06-.8zm-5-9v8l3.7.72V46z" clip-rule="evenodd"/>
    </clipPath>
    <linearGradient id="f" x1="132.2" x2="152.41" y1="51.33" y2="51.33" xlink:href="#a"/>
    <clipPath id="g">
      <path fill="none" d="M143.63 68.75l8.8 1.7v-8.7l-8.8-1.4zm-6.4-1.23l5.06 1v-8.4l-5.06-.8zm-5-9v8l3.7.72V59.1z" clip-rule="evenodd"/>
    </clipPath>
    <linearGradient id="h" x1="132.2" x2="152.41" y1="64.48" y2="64.48" xlink:href="#a"/>
    <clipPath id="i">
      <path fill="none" d="M162.02 7.6l24.57 1.56 20.1-4.88-26.9-1.13-17.77 4.45z" clip-rule="evenodd"/>
    </clipPath>
    <linearGradient id="j" x1="162.02" x2="207.32" y1="6.16" y2="6.16" xlink:href="#b"/>
  </defs>
  <path fill="#000" fill-rule="evenodd" d="M2.13 196.36l4 6.73h.52v-6.73h1.6v6.73h.52l4-6.73h1.92l-4.56 7c2 .23 2.84 1.73 3.5 3.9l1.26 4.3h-1.7a30.89 30.89 0 0 1-1-3.55c-.6-2.07-1.24-3.4-3.3-3.4h-.64v7h-1.6v-7H6c-2.06 0-2.7 1.33-3.3 3.4l-1 3.55H0c.55-1.4.88-2.86 1.3-4.28.65-2.16 1.45-3.62 3.45-3.9l-4.54-7zm26.54 4.28v4.6l-.12 4.37h.06l1.5-3.35 2.88-5.6h2v10.9h-1.6v-4.6l.1-4.48-1.55 3.4-2.96 5.7h-1.93v-10.9zm26.7 0v10.9H53.7v-9.34h-3.17v2.8c0 3.06-.25 5.1-1.45 6a2.42 2.42 0 0 1-1.83.68l-.17-1.55a1.92 1.92 0 0 0 .91-.45c.86-.74 1-2.27 1-4.7v-4.34zM77.13 206c0 4-2.4 5.8-4.6 5.8-2.48 0-4.43-2.16-4.43-5.6 0-3.62 2-5.76 4.58-5.76s4.45 2.25 4.45 5.57zm-7.3.1c0 2.38 1.14 4.18 2.78 4.18s2.8-1.78 2.8-4.23c0-1.85-.78-4.16-2.77-4.16s-2.8 2.16-2.8 4.2zm21.63-5.46v4.6l-.1 4.37h.06l1.5-3.35 2.88-5.63h2v10.9h-1.6v-4.6l.1-4.48-1.55 3.4-2.88 5.7h-2.02v-10.87zm1.1-4.44c.06 1 .46 1.7 1.22 1.7s1.2-.74 1.3-1.7h1.2c-.1 1.8-1.07 2.8-2.54 2.8-1.68 0-2.33-1.26-2.4-2.8zm34.97 4.44v4.73h.4l3.45-4.73h2l-4 4.9c1.5.2 2.38 1.37 3.1 3.33a25 25 0 0 0 1 2.66h-1.75a18.45 18.45 0 0 1-.86-2.23c-.63-1.75-1.5-2.56-3-2.56h-.32v4.8h-1.66v-10.9zm26.4 5.36c0 4-2.38 5.8-4.6 5.8-2.48 0-4.42-2.16-4.42-5.6 0-3.62 2-5.76 4.58-5.76s4.44 2.25 4.44 5.57zm-7.3.1c0 2.38 1.15 4.18 2.8 4.18s2.8-1.78 2.8-4.23c0-1.85-.78-4.16-2.77-4.16s-2.83 2.16-2.83 4.2zm20.2-5.46h2.06l1.66 5.5.84 3 1.1-3.74 1.47-4.75h2.08l.65 10.9h-1.6l-.35-9.1h-.06l-1 3.53-1.77 5.5h-1.2l-1.64-5.4-.93-3.6H168l-.13 3.92-.25 5.15h-1.54zm30.33 0v10.9h-1.68v-9.34h-4.3v9.34h-1.68v-10.9h7.65zm20.42 0v10.9h-1.68v-9.34h-3.17v2.8c0 3.06-.25 5.1-1.45 6a2.43 2.43 0 0 1-1.83.68l-.17-1.55a1.92 1.92 0 0 0 .91-.45c.86-.74 1-2.27 1-4.7v-4.34zm14.33 5.8c0 2.68 1.47 3.78 3.17 3.78a5.21 5.21 0 0 0 2.55-.56l.3 1.42a6.52 6.52 0 0 1-3.09.7c-2.84 0-4.54-2.23-4.54-5.5s1.64-5.85 4.33-5.85c3 0 3.8 3.1 3.8 5.1a5.66 5.66 0 0 1-.06.92zm4.92-1.42c0-1.24-.44-3.2-2.33-3.2-1.72 0-2.44 1.82-2.57 3.2zm16.03-4.38v4.73h.4l3.45-4.73h2l-4 4.9c1.5.2 2.38 1.37 3.1 3.33a24.33 24.33 0 0 0 1 2.66h-1.76a19 19 0 0 1-.86-2.23c-.63-1.75-1.48-2.56-3-2.56h-.32v4.8h-1.66v-10.9zm24.6 10.5a5.61 5.61 0 0 1-2.65.63c-2.78 0-4.6-2.23-4.6-5.56s1.95-5.8 5-5.8a4.64 4.64 0 0 1 2.33.58l-.38 1.5a3.6 3.6 0 0 0-1.94-.52c-2.12 0-3.26 1.86-3.26 4.12 0 2.52 1.37 4.07 3.2 4.07a4.19 4.19 0 0 0 2.06-.52zM12.43 164.92V183h4.17v-25h-5.2l-3 3.2-3.1-3.2H0v25h4.27v-18.2l4.14 3.94zm19.77 10.84v-2.48-2.82-2.7-3.32l-.23-1.42a7.08 7.08 0 0 0-.42-1.33 6.18 6.18 0 0 0-.74-1.28 7 7 0 0 0-1.21-1.23 8.54 8.54 0 0 0-1.69-.71 8.08 8.08 0 0 0-2.49-.35 6.67 6.67 0 0 0-3.09.64 6.49 6.49 0 0 0-2.13 1.77q-.43.57-.73 1a4.26 4.26 0 0 0-.45.92 4.9 4.9 0 0 0-.22 1 9.21 9.21 0 0 0-.06 1.13q0 .6-.06 1.67v9.85a13.29 13.29 0 0 0 .09 1.37 5.7 5.7 0 0 0 2.35 4.19 5.48 5.48 0 0 0 1.16.78 4.87 4.87 0 0 0 1.11.41 5.24 5.24 0 0 0 1.05.14h1a11.55 11.55 0 0 0 2-.14 5.14 5.14 0 0 0 1.39-.43 4.23 4.23 0 0 0 1-.69 12.56 12.56 0 0 0 .94-1 4.71 4.71 0 0 0 1-1.54 6.55 6.55 0 0 0 .42-1.75l.01-1.67zm-4.18 0a2 2 0 0 1-.52.66 2.26 2.26 0 0 1-.83.41 5 5 0 0 1-1.28.14 3.44 3.44 0 0 1-2.15-.59 2.1 2.1 0 0 1-.85-1.51c0-.17 0-.47-.08-.92s-.06-1-.08-1.53v-3.6l.06-1.47a3 3 0 0 1 .14-.85 2.92 2.92 0 0 1 .94-1.56 3.28 3.28 0 0 1 2.06-.53 3.9 3.9 0 0 1 2.16.51 2.51 2.51 0 0 1 1 1.86c0 .3 0 .85.08 1.6s0 1.58 0 2.43v2.43a6.58 6.58 0 0 1-.2 1.61 5.41 5.41 0 0 1-.47.92zm15.9-1.32a3 3 0 0 1-1 1.86 3.57 3.57 0 0 1-2 .48H40a1.54 1.54 0 0 1-.85-.36 2 2 0 0 1-.8-.67 2.33 2.33 0 0 1-.43-.89 5.75 5.75 0 0 1-.16-1c0-.47-.07-1-.1-1.62v-3.7a12.38 12.38 0 0 1 .1-1.5 3.27 3.27 0 0 1 .16-.85l.55-.85a2.68 2.68 0 0 1 .64-.64 2.84 2.84 0 0 1 .85-.39 4.43 4.43 0 0 1 1.21-.14 2.92 2.92 0 0 1 1.62.5 3.12 3.12 0 0 1 1.16 1.67l3.65-2.73-.45-1.5a7.59 7.59 0 0 0-.46-1.14A4.22 4.22 0 0 0 46 160a12.42 12.42 0 0 0-.94-.92 5.21 5.21 0 0 0-1.82-.82 8.4 8.4 0 0 0-1.7-.18 18 18 0 0 0-3 .23 4.24 4.24 0 0 0-2.29 1.23 7.42 7.42 0 0 0-1.47 2.17 5.62 5.62 0 0 0-.54 2.31q-.06 1.1-.1 2.88-.05 1.78-.13 3.7v3.82a27.87 27.87 0 0 0 .18 3.19 7.59 7.59 0 0 0 .56 1.63 9.06 9.06 0 0 0 .83 1.42 7.26 7.26 0 0 0 .57.66 6.53 6.53 0 0 0 .57.51 3.34 3.34 0 0 0 .73.44 10.71 10.71 0 0 0 1 .41 12.64 12.64 0 0 0 1.17.2 11.48 11.48 0 0 0 1.45.09 6.4 6.4 0 0 0 3.25-.76 6.84 6.84 0 0 0 2.2-2 5.89 5.89 0 0 0 .63-1.17 5.7 5.7 0 0 0 .36-1.59zm14.72-16.33a27.23 27.23 0 0 1-.22 3.73 14.11 14.11 0 0 1-.57 2.57 7.07 7.07 0 0 1-.79 1.69 5.61 5.61 0 0 1-.86 1 8.94 8.94 0 0 1-.93.73l-.93.62-1 .6v-11H49.3V183h4.05v-10l1.24-.68.9-.53a2.47 2.47 0 0 0 .54-.39 3.1 3.1 0 0 1 1 .67 6.27 6.27 0 0 1 .85 1.08 8.31 8.31 0 0 1 .82 1.72 8.12 8.12 0 0 1 .4 1.74c.08.6.14 1.44.17 2.48a36.89 36.89 0 0 1-.14 3.87H63v-2.72c0-.8-.08-1.5-.16-2.15l-.25-1.77-.32-1.63a11.15 11.15 0 0 0-.87-2.34 17.08 17.08 0 0 0-1.11-1.92 13.12 13.12 0 0 0-1.42-1.7 11.66 11.66 0 0 0 1.33-1.6 8.35 8.35 0 0 0 1-2.08 15.86 15.86 0 0 0 .65-2.91 30.79 30.79 0 0 0 .23-4.07zm19.87 17.62v-2.48-2.82-2.7-3.32q-.1-.75-.23-1.42a7.15 7.15 0 0 0-.42-1.33 6.17 6.17 0 0 0-.74-1.28 7 7 0 0 0-1.2-1.23 8.53 8.53 0 0 0-1.69-.71 8.06 8.06 0 0 0-2.49-.35 6.67 6.67 0 0 0-3.09.64 6.49 6.49 0 0 0-2.13 1.77q-.43.57-.73 1a4.36 4.36 0 0 0-.45.92 4.77 4.77 0 0 0-.22 1 8.76 8.76 0 0 0-.06 1.13L65 166.2c-.06.67 0 1.5 0 2.36v7.5a13.66 13.66 0 0 0 .09 1.37 5.71 5.71 0 0 0 2.35 4.19 5.59 5.59 0 0 0 1.16.78 4.93 4.93 0 0 0 1.11.41 5.24 5.24 0 0 0 1.05.14h1a11.54 11.54 0 0 0 2-.14 5.13 5.13 0 0 0 1.39-.43 4.19 4.19 0 0 0 1-.69 11.92 11.92 0 0 0 .94-1 4.71 4.71 0 0 0 1-1.54 6.67 6.67 0 0 0 .42-1.75c-.03-.33-.01-.9 0-1.64zm-4.17 0a2.07 2.07 0 0 1-.53.66 2.26 2.26 0 0 1-.83.41 5 5 0 0 1-1.28.14 3.45 3.45 0 0 1-2.15-.59 2.1 2.1 0 0 1-.85-1.51c0-.17 0-.47-.08-.92s-.06-1-.08-1.53v-3.6l.06-1.47a3.06 3.06 0 0 1 .14-.85 2.92 2.92 0 0 1 .94-1.56 3.29 3.29 0 0 1 2.06-.53 3.91 3.91 0 0 1 2.17.51 2.52 2.52 0 0 1 1 1.86 14.39 14.39 0 0 0 .08 1.61c.08.76 0 1.58 0 2.43v2.43a6.7 6.7 0 0 1-.2 1.61 5.54 5.54 0 0 1-.45.95zm14 7.24a8.4 8.4 0 0 0 3.22-1 5.28 5.28 0 0 0 1.81-1.65 5 5 0 0 0 .76-2 8.57 8.57 0 0 0 .09-1.88 6.27 6.27 0 0 0-.25-1.44 5.21 5.21 0 0 0-.22-.6 15.6 15.6 0 0 0-1-1.74q-.62-1-1.24-1.92l-1.54-2.16q.68-.7 1.3-1.5a13.61 13.61 0 0 0 1.1-1.6 8.52 8.52 0 0 0 .72-1.6 4.34 4.34 0 0 0 .23-1.55 5 5 0 0 0-.94-2.55 4.83 4.83 0 0 0-1.5-1.28 5 5 0 0 0-2.07-.5h-8.38v25zm-3.74-10.15a14.6 14.6 0 0 0 1.33-.78l1-.64a2.69 2.69 0 0 0 .56-.5 7.16 7.16 0 0 1 .87 1 9.11 9.11 0 0 1 .76 1.24 10.18 10.18 0 0 1 .7 1.81 1.21 1.21 0 0 1 0 .32 1.06 1.06 0 0 1-.09.43 1.13 1.13 0 0 1-.29.39.93.93 0 0 1-.54.21h-4.28zm0-8.62H88a1.38 1.38 0 0 1 .56.11 1.19 1.19 0 0 1 .39.21.41.41 0 0 1 .05.48 9 9 0 0 1-.57 1.37 5.28 5.28 0 0 1-1.25 1.47 3.68 3.68 0 0 1-.83.62l-.83.4a7.33 7.33 0 0 1-.9.28zm20.87 10.22a3 3 0 0 1-1 1.86 3.57 3.57 0 0 1-2 .48h-.9a1.54 1.54 0 0 1-.85-.36 2.06 2.06 0 0 1-.8-.67 2.37 2.37 0 0 1-.43-.89 5.67 5.67 0 0 1-.15-1q-.06-.7-.1-1.62v-3.7a12.38 12.38 0 0 1 .1-1.5 3.23 3.23 0 0 1 .15-.85 9.63 9.63 0 0 1 .56-.85 2.65 2.65 0 0 1 .63-.64 2.87 2.87 0 0 1 .85-.39 4.44 4.44 0 0 1 1.21-.14 2.91 2.91 0 0 1 1.62.5 3.13 3.13 0 0 1 1.16 1.67l3.65-2.73-.45-1.5a7.88 7.88 0 0 0-.46-1.14 4.34 4.34 0 0 0-.65-.94 12.72 12.72 0 0 0-.94-.92 5.19 5.19 0 0 0-1.82-.82 8.4 8.4 0 0 0-1.7-.18 18 18 0 0 0-3 .23 4.25 4.25 0 0 0-2.29 1.23 7.52 7.52 0 0 0-1.47 2.17 5.64 5.64 0 0 0-.54 2.31q-.06 1.1-.1 2.88-.05 1.78-.08 3.7v3.82q0 1.88.2 3.2a7.51 7.51 0 0 0 .56 1.63 9 9 0 0 0 .83 1.42 7.18 7.18 0 0 0 .57.66 6.31 6.31 0 0 0 .57.51 3.31 3.31 0 0 0 .73.44 10.71 10.71 0 0 0 1 .41 12.64 12.64 0 0 0 1.17.2 11.47 11.47 0 0 0 1.45.09 6.41 6.41 0 0 0 3.25-.76 6.85 6.85 0 0 0 2.19-2 6 6 0 0 0 .63-1.17 5.7 5.7 0 0 0 .36-1.59zm14.72-16.33a27.23 27.23 0 0 1-.22 3.73 14.43 14.43 0 0 1-.57 2.57 7.07 7.07 0 0 1-.79 1.69 5.5 5.5 0 0 1-.86 1 8.94 8.94 0 0 1-.93.73l-.93.62-1 .6v-11h-4.05V183h4.05v-10l1.24-.68.9-.53a2.53 2.53 0 0 0 .54-.39 3.08 3.08 0 0 1 1 .67 6.36 6.36 0 0 1 .85 1.08 8.38 8.38 0 0 1 .82 1.72 7.88 7.88 0 0 1 .4 1.74c.08.6.14 1.44.17 2.48a36.21 36.21 0 0 1-.14 3.87h3.9v-2.72c0-.8-.08-1.5-.15-2.15l-.25-1.77-.32-1.63a11.15 11.15 0 0 0-.87-2.34 17.44 17.44 0 0 0-1.11-1.92 13.34 13.34 0 0 0-1.42-1.7 11.66 11.66 0 0 0 1.33-1.6 8.46 8.46 0 0 0 1-2.08 16 16 0 0 0 .65-2.91 30.56 30.56 0 0 0 .23-4.07zm15.43.07v4.3l-4.95 4.93v-9.23h-4.14v24.88h4.14v-10l4.95-4.93V183h4.14v-24.8zm16.67-3.94h-6l-1.36 3H151zm-1.3 8.28l-5 4.94v-9.23h-4.14v24.88H146v-10l4.95-4.93v14.9h4.14V158.2H151zm26.37-4.37a27.3 27.3 0 0 1-.22 3.73 14.45 14.45 0 0 1-.57 2.57 7 7 0 0 1-.79 1.69 5.67 5.67 0 0 1-.87 1 8.74 8.74 0 0 1-.93.73l-.93.62-1 .6v-11h-4V183h4v-10q.68-.35 1.24-.68l.9-.53a2.47 2.47 0 0 0 .54-.39 3.11 3.11 0 0 1 1 .67 6.36 6.36 0 0 1 .85 1.08 8.38 8.38 0 0 1 .82 1.72 8.13 8.13 0 0 1 .4 1.74 24.74 24.74 0 0 1 .17 2.48 36.51 36.51 0 0 1-.14 3.87h3.9v-2.72c0-.8-.08-1.5-.15-2.15l-.25-1.77-.32-1.63a11.2 11.2 0 0 0-.86-2.34 17.49 17.49 0 0 0-1.11-1.92 13.46 13.46 0 0 0-1.42-1.7 11.68 11.68 0 0 0 1.33-1.6 8.54 8.54 0 0 0 1-2.08 15.58 15.58 0 0 0 .65-2.91 30.28 30.28 0 0 0 .23-4.07zM191.73 183a8.41 8.41 0 0 0 3.22-1 5.28 5.28 0 0 0 1.81-1.65 5 5 0 0 0 .76-2 8.47 8.47 0 0 0 .1-1.88 6.16 6.16 0 0 0-.25-1.44 4.36 4.36 0 0 0-.22-.6 15.93 15.93 0 0 0-1-1.74l-1.24-1.92-1.55-2.16q.68-.7 1.3-1.5a13.28 13.28 0 0 0 1.1-1.6 8.56 8.56 0 0 0 .73-1.6 4.4 4.4 0 0 0 .23-1.55 5 5 0 0 0-.94-2.55 4.8 4.8 0 0 0-1.5-1.28 5 5 0 0 0-2.07-.5h-8.44V183zM188 172.87a15 15 0 0 0 1.33-.78l1-.64a2.63 2.63 0 0 0 .56-.5 7.07 7.07 0 0 1 .87 1 8.89 8.89 0 0 1 .76 1.24 10 10 0 0 1 .7 1.81 1.21 1.21 0 0 1 0 .32 1.06 1.06 0 0 1-.09.43 1.15 1.15 0 0 1-.29.39.94.94 0 0 1-.54.21H188zm0-8.62h3.34a1.38 1.38 0 0 1 .56.11 1.19 1.19 0 0 1 .39.21.41.41 0 0 1 .11.43 9.17 9.17 0 0 1-.57 1.37 5.32 5.32 0 0 1-1.25 1.47 3.67 3.67 0 0 1-.84.62l-.84.4a7.29 7.29 0 0 1-.9.28zm21.1 10.15v8.6h4v-24.82h-9.86a46.08 46.08 0 0 0-2.29 5.11 50.29 50.29 0 0 0-1.59 5.25 26.83 26.83 0 0 0-.79 6 24 24 0 0 0 .12 3 26.59 26.59 0 0 0 .5 2.75 9.9 9.9 0 0 0 1.08 2.75h3.37a10.34 10.34 0 0 1-.87-1.85 15.66 15.66 0 0 1-.62-2.11 15.31 15.31 0 0 1-.34-2.75v-.9a7.88 7.88 0 0 1 .11-1zm0-5.82H203a21.48 21.48 0 0 1 .9-2.32 10.26 10.26 0 0 1 1.17-2h4zm-6.87 3c0-.2 0-.37.06-.48s0-.2.06-.27a1.37 1.37 0 0 0 0-.26c0-.1 0-.27.08-.48h6.62v1.5zm12.93 11.5h4.17V175q1.58-.9 3.25-1.92a20.54 20.54 0 0 0 3-2.27 10.94 10.94 0 0 0 2.24-2.78 6.8 6.8 0 0 0 .84-3.49 7 7 0 0 0-.22-1.81 5.77 5.77 0 0 0-1.42-2.57 7.13 7.13 0 0 0-1-.83 8 8 0 0 0-2.6-1.21h-8.35zm7.67-18.67a1.93 1.93 0 0 1 .65.32 1.44 1.44 0 0 1 .42.5 1.4 1.4 0 0 1 .11.82 3 3 0 0 1-.47 1.33 10.23 10.23 0 0 1-1.16 1.65 12 12 0 0 1-1.54 1.51 4.62 4.62 0 0 1-1.62.9v-7zm15.35 18.6l-.06-18.84h4.27v-6h-12.56v6h4.27V183zm15.83-8.6v8.6h4V158.2h-9.86a45.57 45.57 0 0 0-2.29 5.11 49.64 49.64 0 0 0-1.59 5.25 26.82 26.82 0 0 0-.79 6 23.68 23.68 0 0 0 .12 3 25.79 25.79 0 0 0 .5 2.75 9.81 9.81 0 0 0 1.08 2.75h3.37a10.37 10.37 0 0 1-.86-1.85 15.41 15.41 0 0 1-1-4.86v-.9a8.12 8.12 0 0 1 .11-1zm0-5.82h-6.1a21.29 21.29 0 0 1 .9-2.32 10.19 10.19 0 0 1 1.17-2h4zm-6.86 3a4.41 4.41 0 0 1 .06-.48c0-.1 0-.2.06-.27a1.6 1.6 0 0 0 0-.26c0-.1 0-.27.08-.48H254v1.5zm20.22-7.2h5.87v18.7h4.24v-24.9h-14.13v16.9a1.67 1.67 0 0 1-.74 1.51 3.25 3.25 0 0 1-1.79.48l-1.34 5.94a24.5 24.5 0 0 0 2.72-.13 7.5 7.5 0 0 0 1.79-.39 3.94 3.94 0 0 0 1.18-.66 6.82 6.82 0 0 0 .9-.92 5.63 5.63 0 0 0 .93-1.63 8.8 8.8 0 0 0 .4-3z"/>
  <path fill="#233482" d="M126.03 100.98l-38.8 19.57L60.32 10.5l92.12 9.3-26.4 81.17z"/>
  <path fill="#313b90" d="M61.06 10.57v2.96l26.17 107.02 38.8-19.57 26.4-81.17-91.38-9.24z"/>
  <path fill="#008683" d="M188.4 114.38l-35.95-5.8V19.8l9.58-12.2 24.57 1.56 16.3-3.7L187.85 58l.54 56.4z"/>
  <path fill="#233482" d="M147.68 33.17L137.2 1.07 60.3 10.5l26.9 2.72 15.96 57.9 18.4-54.42 30.87 3.12-4.76 13.36z"/>
  <path fill="#313b90" d="M61.06 10.57v-.16l76.15-9.34 10.47 32.1 4.76-13.36-30.87-3.12-18.4 54.42-15.96-57.9-26.16-2.65z"/>
  <path fill="#c6c6c6" d="M206.68 4.28L187.85 58l18.83 45.93-18.28 10.46-14.83-37.07c-.1.47.1 45.42.1 45.42l-21.22 12.16V19.8l21.35-6.55-1.74 46.2 14.53-50.3z"/>
  <path fill="#fff" d="M60.32 10.5v105.78l26.9 4.27v-32.2l33.9 7.5.14 32.06 31.16 7V19.8l-30.87-3.12-18.4 54.42-15.96-57.77-26.9-2.84z"/>
  <g clip-path="url(#c)">
    <path fill="url(#b)" d="M121.57 11.83h52.22v7.98h-52.22z"/>
  </g>
  <g clip-path="url(#d)">
    <path fill="url(#a)" d="M61.06 0h76.14v13.34H61.06z"/>
  </g>
  <path fill="#233482" d="M78.05 117.67v-95l-2.25-.38v95l-2.78-.47v-95l-2.2-.38v95l-2.8-.47v-95l-1.75-.3v95l-2.78-.46V18.47l17.34 2.94v96.72l-2.78-.46z"/>
  <path fill="#313b90" d="M143.63 42.7l8.8 1.3v-8.7l-8.8-1zm-6.4-.93l5.06.74v-8.37l-5.06-.57zm-5-8.77v8l3.7.54v-8.12z"/>
  <path fill="#006f68" d="M160.2 40.55l6.08-2.55v-8.6L160.2 32zm-7.76-5.27v8.5l6.43-2.68v-8.56z"/>
  <g clip-path="url(#e)">
    <path fill="url(#f)" d="M132.2 45.36h20.24V57.3H132.2z"/>
  </g>
  <path fill="#006f68" d="M160.2 53.33l6.08-3V42.7l-6.08 2.6zm-7.76-4.75v8.52l6.43-3.1v-8.15z"/>
  <g clip-path="url(#g)">
    <path fill="url(#h)" d="M132.2 58.5h20.24v11.93H132.2z"/>
  </g>
  <path fill="#006f68" d="M160.2 65.74l6.08-3.54v-7.3l-6.08 3zm-7.76-4v8.5l6.43-3.73v-7.95z"/>
  <g clip-path="url(#i)">
    <path fill="url(#j)" d="M162.02 3.15h44.66v6h-44.66z"/>
  </g>
</svg>