<svg xmlns="http://www.w3.org/2000/svg" viewBox="0 0 8.53 8.28"><defs><style>.cls-1,.cls-2{fill:#fff;}.cls-2{fill-rule:evenodd;}</style></defs><title>rings</title><g id="Layer_2" data-name="Layer 2"><g id="Layer_1-2" data-name="Layer 1"><rect class="cls-1" x="0.57" y="0.65" width="0.79" height="7.63"/><rect class="cls-1" x="7.17" y="0.65" width="0.77" height="7.63"/><path class="cls-2" d="M8.53.4h0a.39.39,0,0,1-.4.4H.37A.38.38,0,0,1,0,.4H0A.38.38,0,0,1,.37,0H8.14a.39.39,0,0,1,.4.4Z"/><rect class="cls-1" x="2.72" y="0.65" width="0.4" height="2.58"/><rect class="cls-1" x="5.39" y="0.65" width="0.43" height="2.58"/><path class="cls-1" d="M2.92,2.75a1,1,0,0,1,.74.31A1,1,0,0,1,4,3.8a1,1,0,0,1-.31.74,1.1,1.1,0,0,1-1.47,0,1.16,1.16,0,0,1-.31-.74,1.1,1.1,0,0,1,.31-.74,1,1,0,0,1,.74-.31Zm.34.71a.48.48,0,0,0-.82.34.46.46,0,0,0,.14.31.48.48,0,0,0,.68,0A.46.46,0,0,0,3.4,3.8a.47.47,0,0,0-.14-.34Z"/><path class="cls-1" d="M5.61,2.75a1,1,0,0,1,.74.31,1.08,1.08,0,0,1,.28.74,1.13,1.13,0,0,1-.28.74,1.13,1.13,0,0,1-.74.28,1.08,1.08,0,0,1-.74-.28,1,1,0,0,1-.31-.74,1,1,0,0,1,.31-.74,1,1,0,0,1,.74-.31Zm.31.71a.46.46,0,0,0-.31-.14.48.48,0,0,0-.48.48.46.46,0,0,0,.14.31.47.47,0,0,0,.34.14.49.49,0,0,0,.45-.45.47.47,0,0,0-.14-.34Z"/></g></g></svg>